<?xml version="1.0" encoding="utf-8"?>
<svg width="51" height="73" viewBox="0 0 51 73" fill="none" xmlns="http://www.w3.org/2000/svg">
<path fill-rule="evenodd" clip-rule="evenodd" d="M44.6444 46.0016V39.0752H43.7674V46.8068H49V46.0016H44.6444ZM34.0447 43.9826L35.8162 40.038L37.5759 43.9826H34.0447ZM35.4185 39.0227L31.8873 46.8126H32.7818L33.6997 44.7703H37.9149L38.8211 46.8126H39.7624L36.2312 39.0227H35.4185ZM26.0291 42.944L23.4157 39.0752H22.3517L25.5731 43.7492V46.8068H26.4558V43.7375L29.6773 39.0752H28.66L26.0291 42.944ZM18.645 42.9673C18.645 44.7237 17.3821 46.1358 15.6106 46.1358C13.8392 46.1358 12.5588 44.7003 12.5588 42.944V42.9206C12.5588 41.1643 13.8216 39.7521 15.5931 39.7521C17.3646 39.7521 18.6508 41.1875 18.6508 42.944V42.9673H18.645ZM15.6165 38.9469C13.2604 38.9469 11.6526 40.8142 11.6526 42.944V42.9673C11.6526 45.0971 13.237 46.9469 15.5931 46.9469C17.9492 46.9469 19.557 45.0796 19.557 42.9498C19.5687 42.9381 19.5687 42.9381 19.557 42.9264C19.557 40.7908 17.9726 38.9469 15.6165 38.9469ZM2.87115 43.0198V39.8805H5.26237C6.51351 39.8805 7.24432 40.4523 7.24432 41.4034V41.4268C7.24432 42.4188 6.41412 43.0198 5.25067 43.0198H2.87115ZM8.133 41.3977V41.3743C8.133 40.7674 7.91083 40.2247 7.53666 39.8513C7.0514 39.367 6.2855 39.0752 5.33252 39.0752H2V46.8068H2.87698V43.8017H5.09281L7.33788 46.8068H8.41364L6.0341 43.65C7.24433 43.4282 8.133 42.6755 8.133 41.3977Z" fill="black"/>
<path fill-rule="evenodd" clip-rule="evenodd" d="M44.2347 72.0133V69.3058H48.4517V68.5121H44.2347V65.8746H48.9475V65.081H43.3597V72.8127H49V72.0191H44.2347V72.0133ZM36.8213 68.5239C35.1181 68.1621 34.7215 67.7478 34.7215 67.0242V67.0009C34.7215 66.3065 35.3631 65.7522 36.3664 65.7522C37.1596 65.7522 37.877 66.009 38.5944 66.5925L39.1018 65.9214C38.3203 65.2912 37.5095 64.9703 36.3838 64.9703C34.914 64.9703 33.8466 65.8631 33.8466 67.0826V67.1059C33.8466 68.378 34.6632 68.9498 36.4421 69.335C38.0636 69.6792 38.4544 70.0877 38.4544 70.8055V70.8287C38.4544 71.5932 37.772 72.1417 36.7338 72.1417C35.6606 72.1417 34.8907 71.7799 34.0857 71.0505L33.5433 71.6923C34.4708 72.5209 35.4739 72.9294 36.6988 72.9294C38.2328 72.9294 39.3351 72.0658 39.3351 70.7412V70.7179C39.341 69.5275 38.5477 68.8974 36.8213 68.5239ZM28.9413 69.5741C28.9413 71.2663 28.0372 72.1241 26.614 72.1241C25.1325 72.1241 24.2518 71.1847 24.2518 69.5158V65.0753H23.3769V69.5741C23.3769 71.7623 24.6776 72.9294 26.5907 72.9294C28.5214 72.9294 29.8104 71.7566 29.8104 69.5041V65.0753H28.9355V69.5741H28.9413ZM18.7807 68.9674C18.7807 70.7237 17.5209 72.1359 15.7535 72.1359C13.9862 72.1359 12.7089 70.7004 12.7089 68.944V68.9206C12.7089 67.1642 13.9687 65.7521 15.736 65.7521C17.5034 65.7521 18.7866 67.1876 18.7866 68.944V68.9674H18.7807ZM15.7535 64.9469C13.403 64.9469 11.799 66.8141 11.799 68.944V68.9674C11.799 71.0972 13.3796 72.9469 15.7302 72.9469C18.0808 72.9469 19.6848 71.0796 19.6848 68.9498C19.6965 68.9382 19.6965 68.9382 19.6848 68.9265C19.6848 66.7908 18.11 64.9469 15.7535 64.9469ZM7.33694 68.5121H2.87491V65.0753H2V72.8069H2.87491V69.3291H7.33694V72.8069H8.21185V65.0753H7.33694V68.5121Z" fill="black"/>
<path fill-rule="evenodd" clip-rule="evenodd" d="M45.28 56.9826L47.0522 53.038L48.8126 56.9826H45.28ZM47.4733 52.0228H46.6544L43.1219 59.8068H44.0167L44.9349 57.7645H49.1518L50.0583 59.8068H51L47.4733 52.0228ZM34.2261 56.0198V52.8805H36.6181C37.8698 52.8805 38.6008 53.4523 38.6008 54.4035V54.4268C38.6008 55.4188 37.7703 56.0198 36.6065 56.0198H34.2261ZM39.4898 54.3976V54.3743C39.4898 53.7674 39.2676 53.2248 38.8933 52.8513C38.4078 52.367 37.6416 52.0753 36.6883 52.0753H33.3546V59.8068H34.2319V56.8017H36.4485L38.6944 59.8068H39.7706L37.3902 56.65C38.6008 56.4283 39.4898 55.6755 39.4898 54.3976ZM24.1898 56.3058H28.4184V55.5122H24.1898V52.8747H28.9155V52.0812H23.3125V59.8068H28.9681V59.0133H24.1839V56.3058H24.1898ZM18.8149 54.5844C18.8149 55.5997 17.9727 56.2882 16.6918 56.2882H14.7734V52.8864H16.7327C17.9844 52.8864 18.8149 53.4582 18.8149 54.5669V54.5844ZM16.7971 52.0753H13.8962V59.8068H14.7735V57.076H16.6567C18.306 57.076 19.7039 56.2124 19.7039 54.5435V54.5202C19.698 53.003 18.5517 52.0753 16.7971 52.0753ZM9.00085 55.9673C9.00085 57.7237 7.73755 59.1358 5.96541 59.1358C4.19327 59.1358 2.91241 57.7004 2.91241 55.944V55.9206C2.91241 54.1642 4.17572 52.7521 5.94786 52.7521C7.72 52.7521 9.00085 54.1876 9.00085 55.944V55.9673ZM5.96538 51.9469C3.60838 51.9469 2 53.8141 2 55.944V55.9673C2 58.0972 3.58498 59.9469 5.94198 59.9469C8.29899 59.9469 9.90736 58.0796 9.90736 55.9498C9.91906 55.9381 9.91906 55.9381 9.90736 55.9265C9.90736 53.7908 8.32823 51.9469 5.96538 51.9469Z" fill="black"/>
<mask id="mask0" mask-type="alpha" maskUnits="userSpaceOnUse" x="0" y="0" width="51" height="35">
<path fill-rule="evenodd" clip-rule="evenodd" d="M0 0H50.9884V34.8984H0V0Z" fill="white"/>
</mask>
<g mask="url(#mask0)">
<path fill-rule="evenodd" clip-rule="evenodd" d="M31.7772 29.8592C32.7564 29.6939 34.7381 28.7909 40.9164 31.4055C42.8573 32.2259 46.0979 33.7664 48.9015 32.1138L48.9131 32.3027C48.0389 33.1054 46.8615 33.6838 45.4451 33.5067C40.6249 32.9165 35.2044 29.2571 31.8821 30.3372L31.7772 29.8592ZM45.9639 23.7917C45.7948 24.8246 44.8682 25.9165 44.8682 25.9165C44.8682 25.9165 44.9905 26.8136 45.55 27.2976C46.1096 27.7816 46.4651 28.1357 46.4651 28.1357L46.436 27.7816C46.436 27.7816 45.4219 26.9789 45.3111 26.0995L45.4918 25.8988C45.4918 25.8988 45.6608 27.1383 46.8848 27.7639C46.8848 27.7639 46.9722 29.8061 47.456 31.1223C47.456 31.1223 47.182 31.7184 46.7799 31.7951L46.6342 31.6476L46.7566 31.0573C46.7566 31.0573 46.5002 29.3693 46.1271 28.5312C46.1271 28.5312 45.5093 27.7993 44.6699 27.2386C44.6699 27.2386 44.5184 26.8668 44.3552 26.8727C44.1979 26.8786 44.2853 27.1206 43.9996 27.274C43.714 27.4275 43.545 27.2976 43.545 27.2976C43.545 27.2976 43.8831 26.4182 43.3585 26.4005C43.3585 26.4005 43.6499 26.1113 43.2361 25.6509C43.2361 25.6509 43.0613 25.5034 42.9447 24.6534C42.8281 23.8035 42.7581 23.4317 42.8864 23.1779C43.0146 22.9182 43.2244 22.1863 42.799 22.0152C42.799 22.0152 42.9505 21.5725 42.9272 21.242C42.9039 20.9114 42.694 20.8524 42.694 20.8524L42.7173 20.6813C42.7173 20.6813 42.8689 20.7757 43.0088 20.5514C43.1487 20.3212 43.2827 19.6779 42.9097 19.5067L42.9621 19.2647L43.0729 19.2529C43.0729 19.2529 43.8482 20.1796 44.769 20.8878C45.6899 21.6079 46.1329 22.7529 45.9639 23.7917ZM30.8912 26.312C30.8912 26.312 31.5382 25.7217 32.1385 26.6838C32.1385 26.6838 32.2376 25.7926 31.2118 25.7158L30.9961 25.4325C30.9961 25.4325 31.7422 24.5413 32.7097 25.4502C33.6773 26.3592 32.8379 27.7521 32.8379 27.7521C32.8379 27.7521 32.3833 28.4367 31.6373 28.6846C31.6373 28.6787 32.1968 27.2681 30.8912 26.312ZM30.4832 29.5995C30.4249 30.9393 28.7346 32.1256 28.7346 32.1256H27.5282L27.4407 31.9131C27.4407 31.9131 28.9212 31.0514 29.4924 30.473C30.0636 29.8946 29.7546 29.1509 29.7546 29.1509C29.265 28.7024 30.5415 28.2597 30.4832 29.5995ZM26.8579 30.2074H25.1093C25.1093 30.2074 23.5997 30.3373 22.7195 29.446C22.7195 29.446 23.7279 29.5464 23.7279 28.3954C23.7279 28.3954 25.0918 29.3457 26.2633 29.5582C27.429 29.7766 26.8579 30.2074 26.8579 30.2074ZM26.24 32.527C25.9602 33.1939 25.1267 33.3296 24.6663 32.4679C24.2058 31.6062 24.0659 30.8154 24.0659 30.8154H25.9602C25.9602 30.8154 26.5198 31.86 26.24 32.527ZM23.4714 32.3027C23.4714 32.3027 21.956 31.6298 20.732 32.5978C20.732 32.5978 20.7028 31.9722 21.6004 31.7833C21.6004 31.7833 21.3032 31.5413 20.6504 31.8305L19.7819 31.618L19.8868 31.317C19.9684 31.0927 20.1899 30.957 20.4231 30.9983L21.1575 31.1222C21.1575 31.1222 19.8927 29.4165 21.274 29.269C21.274 29.269 20.8078 30.9924 23.5938 31.8364L23.4714 32.3027ZM19.0534 27.9528C19.0534 27.9528 18.6571 25.9165 20.155 26.2766L20.324 26.554C20.324 26.5599 19.2632 26.3946 19.0534 27.9528ZM19.1408 30.3432C15.8185 29.2631 10.398 32.9224 5.57774 33.5126C4.1614 33.6838 2.98985 33.1054 2.10974 32.3086L2.1214 32.1197C4.92494 33.7664 8.16562 32.2319 10.1065 31.4115C16.2906 28.7968 18.2665 29.6939 19.2457 29.8651L19.1408 30.3432ZM2.95483 31.6062C2.95483 31.7066 2.87324 31.7951 2.76834 31.7951C2.66927 31.7951 2.58185 31.7125 2.58185 31.6062C2.58185 31.5059 2.66344 31.4174 2.76834 31.4174C2.87324 31.4233 2.95483 31.5059 2.95483 31.6062ZM2.3545 30.4612C2.50021 30.1366 2.71004 28.8971 2.71004 28.8971C2.79747 29.1214 2.79747 29.5405 2.78581 29.57C2.77416 29.5995 3.01896 29.2394 3.01896 29.2394L3.13553 28.4367C3.13553 28.4367 3.81164 27.9351 4.28376 27.4865C4.75587 27.0379 4.6801 26.2706 4.6801 26.2706L4.87245 26.3887C5.08227 23.2074 6.23633 22.5818 6.23633 22.5818C6.23633 22.5818 6.27713 22.4519 6.91245 20.9469C7.54777 19.4418 8.59691 19.2411 8.87668 18.6922C9.15645 18.1433 9.78594 18.2791 9.78594 18.2791L9.57611 18.5919C10.3688 19.0405 11.3247 18.6332 11.3247 18.6332L11.1906 19.1231L11.5403 19.1526C11.383 20.2091 9.04571 21.602 8.71931 21.9916C8.39291 22.3811 8.20639 22.8946 8.20639 22.8946C8.39874 22.9123 8.76011 22.8238 8.76011 22.8238C8.66102 22.747 8.48034 22.7647 8.48034 22.7647C8.48034 22.7647 8.46285 22.5405 9.10983 22.2572C9.7568 21.9739 9.92 22.4342 9.92 22.4342L9.17394 22.7293L9.59943 22.9359L8.7776 23.1543L8.93497 23.3609C8.93497 23.3609 8.43954 23.2605 8.10148 23.3196C7.76342 23.3786 7.75177 23.7681 7.55942 24.6416C7.36708 25.5152 6.92411 25.828 6.60353 26.2057C6.28296 26.5835 6.45782 26.8018 6.45782 27.0556C6.45782 27.3094 6.10811 27.4098 6.10811 27.4098L6.11976 27.7226C5.75256 27.7403 5.54856 27.215 5.54856 27.215C5.22799 27.7934 3.59599 28.7201 3.42113 29.7234C3.24627 30.7209 3.52021 31.2875 3.52021 31.2875C3.18216 30.9865 2.93736 31.2993 2.93736 31.2993C2.58181 31.016 2.31953 31.376 2.31953 31.376C2.31953 31.376 2.20878 30.7858 2.3545 30.4612ZM7.33213 8.4342C7.33213 8.4342 7.1223 7.81448 7.86835 7.44264C8.61441 7.07081 9.13898 7.52527 9.13898 7.52527L8.86504 7.5843L8.95246 7.84399C8.95246 7.83809 7.86252 7.37182 7.33213 8.4342ZM7.59442 10.1163C7.13979 10.3583 6.93579 9.97468 6.93579 9.97468C6.93579 9.97468 7.46036 10.0868 7.74013 9.28413C8.02573 8.48143 8.65521 8.6585 8.65521 8.6585C8.20059 8.82376 8.04904 9.87435 7.59442 10.1163ZM8.54444 11.2732C8.60855 11.8398 8.24718 12.4123 7.77508 12.4831C7.30297 12.5539 7.16309 12.2057 7.16309 12.2057C7.78673 12.3238 8.1073 11.7158 8.14227 11.3086C8.17724 10.9072 8.28216 10.3465 8.28216 10.3465L8.55027 10.134L8.61438 10.2049C8.61438 10.2108 8.48032 10.7065 8.54444 11.2732ZM12.1931 8.71161C12.1931 8.71161 12.3505 8.62308 12.3563 8.79424C12.3621 8.9654 12.1698 9.40806 11.8201 9.04213C11.8201 9.04213 12.2572 9.08934 12.1931 8.71161ZM9.30799 8.25126C9.42457 7.87942 9.94331 7.89122 9.94331 7.89122C9.97245 7.62562 10.1939 7.68465 10.1939 7.68465L10.0191 7.27149L10.4329 7.51348L10.2406 7.08262L10.7243 7.2892C10.7069 7.15345 10.5495 6.95867 10.5495 6.95867C10.8001 6.98819 11.0915 7.25969 11.0915 7.25969C11.0915 7.08262 10.9866 6.91736 10.9866 6.91736C11.5287 6.94687 11.6919 7.47807 11.6919 7.47807C12.1873 6.15597 13.219 6.69308 13.219 6.69308C12.1348 6.93507 12.4438 7.94434 12.4438 7.94434C12.4438 7.94434 12.9159 7.2892 13.4404 7.33642C13.965 7.38363 14.2914 7.78498 14.2914 7.78498C13.2947 7.61972 13.0266 8.3634 13.0266 8.3634C14.6994 7.73777 14.8335 9.30185 14.8335 9.30185C14.8335 9.30185 14.5654 9.23102 14.1457 8.78246C13.7319 8.33389 13.1374 8.76475 13.1374 8.76475C14.4255 9.01855 14.5187 10.0868 14.5187 10.0868C14.1399 9.34317 13.388 9.44941 13.388 9.44941C14.9034 10.3111 14.3963 11.7985 14.3963 11.7985C14.3963 11.7985 13.9417 11.5919 13.93 11.0076C13.9184 10.4174 13.3763 10.0278 13.3763 10.0278C13.5337 10.2816 13.4638 11.0666 13.6736 11.7926C13.8834 12.5186 14.5654 12.2352 14.8451 13.156C15.1249 14.0767 14.3206 14.2892 14.3206 14.2892C14.4838 13.4983 13.9708 13.1442 13.9708 13.1442C14.0874 13.4688 14.0175 13.8761 14.0175 13.8761L13.6386 13.5632C13.7552 14.2302 14.4896 14.9739 14.4896 14.9739L13.6561 14.5312C13.761 14.7673 13.6095 15.0919 13.6095 15.0919C13.4929 14.7319 13.0383 14.4191 13.0383 14.4191C13.0674 14.4781 13.1432 15.027 13.1432 15.027C12.7935 14.6374 11.9717 14.5371 11.9717 14.5371C11.6919 14.183 11.7094 13.7462 11.7094 13.7462C11.7094 13.7462 11.9891 13.8938 12.2339 14.0708C12.4729 14.2479 12.5895 14.1299 12.5895 14.1299C12.502 13.6872 12.7235 13.1088 12.7235 13.1088L12.9742 13.3744L13.1374 13.3626C12.7818 13.032 12.8692 12.5008 12.8692 12.5008C12.945 12.8727 13.2481 13.0202 13.2481 13.0202C13.2481 13.0202 13.0266 12.43 13.0732 11.9224C13.1199 11.4148 13.1782 10.7774 13.1782 10.7774C13.1024 10.4941 12.8401 10.2403 12.8401 10.2403C12.6536 10.6239 12.3097 10.3406 12.3097 10.3406L12.2339 10.5C12.2339 10.5 12.4263 10.6003 12.6478 11.1197C12.8692 11.6391 12.4438 11.8929 12.1523 11.8752C11.8609 11.8575 11.5229 11.6037 11.5229 11.6037C11.5229 11.6037 11.4179 11.0843 11.4529 10.9191C11.4937 10.7538 11.6627 10.7243 11.9367 10.5649C12.2048 10.4056 12.1115 10.0573 12.0125 9.88027C11.9134 9.7032 11.7793 9.26054 11.7793 9.26054C11.7793 9.26054 11.8551 9.39629 12.129 9.34907C12.3971 9.30185 12.4379 8.98903 12.4554 8.80016C12.4729 8.61129 12.5603 8.47554 12.5603 8.47554C12.2922 8.47554 11.8434 8.66441 11.6219 8.68802C11.4005 8.71753 11.3422 8.49325 11.3422 8.49325C11.3422 8.49325 11.3713 9.13069 11.6919 9.79764C12.0125 10.4646 11.5287 10.6121 11.2955 10.6712C11.0624 10.7302 10.5145 10.7007 10.6311 10.0632C10.7477 9.4258 10.4737 8.68212 10.4737 8.68212C10.4737 8.68212 10.5145 8.92411 10.0599 8.97723C9.93748 8.98903 9.82091 9.01855 9.72765 9.04806L9.39542 9.08347L9.52948 9.1661C9.98411 9.95109 10.3688 9.54974 10.3688 9.54974C10.3688 9.54974 10.3805 9.76222 10.2989 10.0396C10.2231 10.3111 10.2581 10.6003 10.2581 10.6003C10.1007 10.7007 9.87337 11.1079 9.87337 11.1079C9.89085 10.8659 10.0774 10.3524 10.0774 10.3524L9.66936 10.8246C9.68102 10.5708 9.83257 10.2344 9.83257 10.2344L9.45371 10.4292C9.47119 10.1872 9.62856 9.90978 9.62856 9.90978C9.27302 9.98651 9.12731 9.74452 9.09817 9.73271C9.06902 9.72091 9.36045 9.52023 9.36045 9.52023L8.90582 9.34317C8.90582 8.86509 9.18559 8.75295 9.18559 8.75295L9.02239 8.65261C9.02239 8.65261 9.47702 8.53456 9.46537 8.38701C9.48868 8.24536 9.30799 8.25126 9.30799 8.25126ZM9.37795 5.37689C9.76263 5.24114 10.0657 5.51264 10.0657 5.51264L10.089 5.70741C9.90252 5.50084 9.37795 5.37689 9.21475 5.74283C9.05155 6.10876 9.37212 6.39206 9.37212 6.39206C9.29635 6.06154 9.54698 6.06744 9.54698 6.06744C9.49452 5.82546 9.61692 5.6779 9.61692 5.6779C9.7976 5.71922 9.87337 6.01433 9.87337 6.01433C10.3105 6.00252 10.1182 6.45699 10.1182 6.45699C10.1007 6.35075 10.0074 6.30353 10.0074 6.30353C10.0016 6.5042 9.86755 6.58093 9.86755 6.58093L10.3455 6.52781L10.1823 5.26475L10.4213 5.1054L10.6136 6.4924L10.7885 6.47469L10.5903 5.08179L10.8467 5.1231L11.0507 6.45108L11.9483 6.35665L11.9891 6.63995L9.57029 6.93506L9.54115 6.65766L9.7568 6.60454C9.59943 6.38026 9.37795 6.59273 9.37795 6.59273C8.74847 6.29763 8.99327 5.51855 9.37795 5.37689ZM11.6569 5.01683C12.0591 5.04044 12.5137 5.72513 11.9892 6.19142C11.9892 6.19142 11.721 6.04386 11.6278 6.30356L11.517 6.31537C11.517 6.31537 11.3655 6.27995 11.3072 6.08517C11.3072 6.08517 11.2314 6.156 11.2431 6.26225C11.2431 6.26225 10.9342 5.87859 11.3597 5.77235C11.3597 5.77235 11.3538 5.46542 11.5112 5.37688C11.5112 5.37688 11.6686 5.47722 11.6861 5.73103C11.6861 5.73103 11.9251 5.6543 11.9425 5.99074C11.9425 5.99074 12.1699 5.63069 11.9134 5.32376C11.6569 5.01683 11.1906 5.28244 11.0624 5.53625L11.0333 5.34147C11.0333 5.34147 11.2489 4.99322 11.6569 5.01683ZM11.5578 15.6172C11.3946 14.9502 10.9692 14.844 10.5612 14.4309C10.1532 14.0177 10.4329 13.3331 10.4329 13.3331C10.4329 13.3331 10.4329 13.4216 11.1207 14.183C11.8143 14.9502 11.5578 15.6172 11.5578 15.6172ZM11.8201 11.9637C11.8201 11.9637 12.1524 12.1231 12.2456 12.5658C12.2456 12.5658 12.5021 12.9553 11.826 13.0852C11.1498 13.215 11.0741 12.8196 11.0741 12.8196C11.0741 12.8196 11.4005 12.6189 11.0099 12.5835C11.0099 12.5835 10.9633 12.4005 11.1265 12.371C11.1265 12.371 11.0099 12.1585 11.2256 12.0582C11.2256 12.0582 11.3014 12.43 11.5753 12.3769C11.8434 12.3297 11.8551 12.1054 11.8201 11.9637ZM10.5087 10.7596C10.5087 10.7596 10.771 10.8482 11.0332 10.8777C11.2955 10.9072 11.2955 11.6214 11.2955 11.6214C11.2955 11.6214 11.0857 12.129 10.6311 12.129C10.1764 12.129 10.0132 11.5093 10.0482 11.3381C10.0832 11.161 10.5087 10.7596 10.5087 10.7596ZM9.94916 9.24284C9.94916 9.24284 10.2639 9.55567 10.3921 9.1366C10.3921 9.1366 10.5436 9.27825 10.3338 9.41401C10.124 9.54977 9.96081 9.43762 9.96081 9.43762C9.96081 9.43762 10.0424 9.34318 9.94916 9.24284ZM9.78013 14.0413C9.75099 14.3541 9.95498 14.5489 10.1182 15.145C10.2814 15.7411 9.90253 15.8887 9.90253 15.8887C9.94333 15.3221 9.53534 14.6079 9.53534 14.6079L9.78013 14.0413ZM9.27889 12.1054C8.94083 11.5683 9.13317 11.0253 9.13317 11.0253L9.19146 11.0843C9.19146 11.0843 9.24974 11.5033 9.5062 11.828C9.76266 12.1526 10.2289 12.9494 9.64609 13.4275C9.0574 13.9055 8.96997 13.4216 8.96997 13.4216C9.75683 13.4098 9.61694 12.6425 9.27889 12.1054ZM16.6345 16.656C17.3689 16.8685 17.6778 17.7125 18.2374 17.9073C18.7969 18.102 18.9601 18.4739 18.9601 18.4739C18.8436 18.3381 18.692 18.4444 18.692 18.4444C19.1292 18.7749 19.0184 19.129 19.0184 19.129C18.9485 18.8929 18.5638 18.8575 18.5638 18.8575C18.9601 19.2116 18.5929 19.5599 18.5929 19.5599C18.6396 19.2943 18.2432 19.011 18.2432 19.011C18.2432 19.011 18.3773 19.43 18.3481 19.6071C18.319 19.7842 17.9518 19.8314 17.7303 19.5658C17.5088 19.3002 17.1416 18.6332 16.9376 18.4916C16.7336 18.344 16.617 18.0725 16.3956 17.8069C16.1741 17.5413 15.9817 17.6771 15.4863 17.8069C14.9909 17.9368 13.6212 17.7656 13.2889 18.403C12.9625 19.0405 12.5662 18.9106 12.5662 18.9106C12.8868 18.5683 12.7294 18.2555 12.7294 18.2555C12.4088 18.6391 11.791 18.7041 11.791 18.7041C11.8201 18.2319 12.1465 17.9014 12.1465 17.9014C12.1465 17.9014 11.96 17.8128 11.2956 18.1256C10.6311 18.4385 10.2522 18.3912 10.2522 18.3912C10.7535 18.285 11.2373 17.6003 11.2373 17.6003C10.6836 17.4705 9.97247 17.7302 9.97247 17.7302C10.1473 17.3465 10.6486 17.1341 10.6486 17.1341C10.2814 17.1046 9.86755 16.9747 9.86755 16.9747C10.3047 16.8567 10.5262 16.473 10.5262 16.473L10.1298 16.5025C10.6602 16.2664 10.8759 15.4165 10.8759 15.4165C11.2839 16.0067 10.9225 16.2015 10.9225 16.2015C12.2456 16.5556 12.537 15.204 12.537 15.204L13.1724 16.172C13.184 16.1779 15.9001 16.4376 16.6345 16.656ZM15.7194 15.7175C15.7194 15.7175 15.8768 15.7884 15.8943 15.9831C15.8943 15.9831 16.0225 15.8474 16.1624 15.3634C16.3081 14.8853 17.334 13.7757 17.7012 13.6105C18.0392 13.457 18.2549 13.339 18.6104 13.4334C17.9693 14.3364 17.4447 15.3693 17.0658 16.4907C16.8968 16.3904 16.5704 16.231 16.1857 16.2723C15.6145 16.3314 15.4805 16.113 15.4805 16.113C15.4805 16.113 15.6495 15.9005 15.7194 15.7175ZM17.3398 25.403C17.3398 25.403 17.5962 24.6475 18.5638 24.9722C19.5371 25.2968 19.2282 25.9047 18.8377 25.6863C18.453 25.462 17.9926 24.9781 17.3398 25.403ZM17.334 26.3592C17.334 26.3592 17.3456 27.3744 18.8377 28.8263C18.8377 28.8263 18.8436 28.9562 18.7095 29.0093C18.7095 29.0093 17.9576 28.968 17.3048 27.8997C16.6462 26.8373 17.334 26.3592 17.334 26.3592ZM18.0742 24.3878C17.6953 24.2521 17.2465 24.3701 17.1008 24.5118C17.1008 24.5118 17.0833 24.441 16.9434 24.3111C16.9434 24.3111 17.4738 23.5733 18.2199 23.6619C18.9601 23.7563 18.9485 24.4764 18.3948 24.317C18.3948 24.3288 18.4589 24.5236 18.0742 24.3878ZM14.7227 26.0877L14.6994 25.7218C14.6994 25.7218 15.0141 25.9992 15.2823 26.0464C15.2823 26.0464 15.4513 25.4857 15.6903 25.3499C15.6903 25.3499 15.7894 26.7428 17.2932 28.6079C17.2932 28.6079 17.1358 28.8558 16.6811 28.5548C16.2323 28.2538 15.2473 27.1206 14.7227 26.0877ZM12.5662 27.1088C11.3305 27.1442 11.5812 28.2597 11.5812 28.2597C10.4329 27.9056 11.5812 26.731 11.5812 26.731C8.73097 27.1206 9.3896 28.962 9.3896 28.962C8.72514 28.8971 8.99326 27.8229 8.99326 27.8229C7.87417 28.5961 7.75177 28.0236 7.75177 28.0236C8.4104 27.9233 9.716 25.9106 11.5928 25.9283C13.4696 25.946 15.1541 27.5868 15.3872 27.8288C15.6204 28.0708 15.4572 28.3482 15.4572 28.3482C14.4313 28.2125 13.8018 27.0734 12.5662 27.1088ZM12.3738 27.516V27.5101C12.6944 27.5042 13.0325 27.5514 13.3763 27.6872C14.3672 28.0826 14.985 28.5961 15.3231 28.9503C15.1832 28.9207 14.985 28.8912 14.7169 28.8912C13.8426 28.8735 12.6944 28.0413 12.3738 27.516ZM11.2489 23.8921C11.925 24.3466 11.7327 25.3971 11.7327 25.3971C11.2781 25.344 10.4562 25.5211 10.4562 25.5211C9.83838 24.8659 9.36626 24.9604 9.42455 24.3584C9.48283 23.7564 10.5728 23.4377 11.2489 23.8921ZM15.5504 24.7597C15.5504 24.7597 15.871 24.1281 16.3023 24.4174C16.7394 24.7066 16.8327 25.285 16.8327 25.285C16.8327 25.285 16.6753 25.344 16.518 25.1905C16.3606 25.0371 16.0925 24.6475 15.5504 24.7597ZM16.3023 26.4713C16.3023 26.4713 15.9059 26.0168 16.0167 25.3853L16.2906 25.4797C16.2965 25.4797 16.1974 26.0227 16.3023 26.4713ZM16.8035 24.1399C16.4596 24.0278 15.7019 23.8979 15.1132 24.6239C15.1132 24.6239 15.0142 24.317 15.2123 23.9511C15.2123 23.9511 14.577 23.833 14.0524 25.2732C14.0524 25.2732 13.5862 25.1433 13.8951 26.1113C13.8951 26.1113 13.2423 25.7335 12.368 25.5742C12.4321 25.2259 12.4554 24.5826 12.0299 23.9511C11.4004 23.0185 10.7418 23.107 10.4737 22.3162C10.4737 22.3162 10.4271 21.8263 11.3946 21.3777C12.3621 20.9291 13.7843 19.2824 14.0175 18.4915C14.0175 18.4915 14.5304 18.3145 14.9734 18.2791C15.4163 18.2377 15.9992 18.102 15.9992 18.102C15.9992 18.102 16.2964 18.161 16.5529 18.5801C16.4363 19.2883 16.378 20.0143 16.378 20.7639C16.378 21.9384 16.5238 23.0775 16.8035 24.1399ZM3.75922 31.7715C3.75922 31.9544 3.61349 32.102 3.4328 32.102C3.25211 32.102 3.10638 31.9544 3.10638 31.7715C3.10638 31.5885 3.25211 31.441 3.4328 31.441C3.61349 31.441 3.75922 31.5885 3.75922 31.7715ZM3.89327 31.2639C3.89327 31.2639 3.7359 31.0809 3.70093 30.774C4.1031 30.774 4.38287 30.9629 4.38287 30.9629C4.32458 31.2934 4.57521 31.8836 5.21635 31.8836C5.85167 31.8836 6.16641 31.435 6.16641 31.435V29.8119C6.16641 29.8119 5.79921 29.0565 4.27795 28.8853C4.63933 28.543 5.28629 28.1062 5.47281 27.7816C5.47281 27.7816 5.47281 28.1416 5.97406 28.1357C6.47532 28.1239 6.48698 27.7049 6.48698 27.7049C6.48698 27.7049 6.32961 27.6045 6.55692 27.4511C6.77841 27.2917 6.97075 26.8254 6.97075 26.8254C6.97075 26.8254 6.67349 26.6661 7.01155 26.3178C7.3496 25.9637 7.74595 25.5742 7.89166 25.161C7.89166 25.161 9.13314 24.9603 9.77428 26.0699C8.84754 26.6248 8.13646 27.4097 8.01406 27.516C7.8392 27.6635 7.53612 27.516 7.65269 27.2209C7.65269 27.2209 6.91246 27.3979 7.1456 28.1298C7.37875 28.8617 8.52114 28.4958 8.52114 28.4958C8.52114 28.4958 8.62023 29.5404 9.53531 29.5404C10.4504 29.5404 10.5378 28.6728 10.1298 28.4367C10.1298 28.4367 10.1998 28.3777 10.3222 28.2833C10.5087 28.5725 10.8293 28.8027 11.383 28.8204C11.383 28.8204 12.5953 29.1804 13.1548 29.6526C10.2231 30.6087 6.9008 32.2614 5.37372 32.2614C4.98321 32.2614 4.63933 32.2377 4.33624 32.2023C4.40035 31.9958 4.48195 31.5413 3.89327 31.2639ZM24.5497 11.6037C22.0085 12.0818 19.9277 14.4604 19.1117 17.624L18.3539 17.0692C19.4147 14.1476 21.752 12.005 24.5497 11.6037ZM22.0726 7.13572C22.1192 6.17366 23.1334 5.93167 23.5705 5.97299C24.0077 6.01431 24.643 6.62813 24.643 6.62813H25.051L25.185 6.97046C25.185 6.97046 25.2725 6.70486 25.2783 6.49828V6.42746H25.6746V6.49828C25.6863 6.69896 25.7679 6.97046 25.7679 6.97046L25.902 6.62813H26.31C26.31 6.62813 26.9453 6.0084 27.3825 5.97299C27.8196 5.93167 28.8337 6.17957 28.8804 7.13572C28.9328 8.09778 28.0585 9.29002 28.0585 9.29002V10.8246H25.6047H25.5639H25.3949H25.3541H22.9002V9.29002C22.9061 9.29002 22.026 8.09778 22.0726 7.13572ZM23.2558 1.45192C23.2558 1.45192 23.419 0.944319 23.8386 1.22763C23.8386 1.22763 23.9844 1.09778 24.2758 1.1568C24.573 1.21582 24.4739 1.71752 24.4739 1.71752C24.4739 1.71752 24.6604 1.81786 24.573 2.13658L24.8644 2.74452L24.7887 3.10456L24.4448 3.50592C24.4448 3.50592 24.3865 3.04554 24.235 3.01603C24.0834 2.98652 24.0485 3.15768 24.0485 3.15768C24.0485 3.15768 23.996 2.91569 24.1825 2.76813C24.369 2.62648 24.2525 2.28414 24.2525 2.28414L24.0776 2.23692C24.0776 2.23692 23.9494 2.60877 23.658 2.33726L23.9377 2.12478L23.9261 1.84737C23.9261 1.84737 23.8969 1.9182 23.827 1.90639C23.757 1.89459 23.658 1.78245 23.658 1.78245C23.658 1.78245 23.757 1.6703 23.757 1.42241C23.757 1.42241 23.6288 1.26304 23.4365 1.44011L23.2558 1.45192ZM25.5172 4.26727C25.5289 4.40302 25.5755 4.6509 25.593 4.75714H24.7129V6.33887C24.4973 6.00836 24.2233 5.76047 23.8795 5.65424L24.4973 4.37351C24.9169 4.36761 25.5172 4.26727 25.5172 4.26727ZM25.8728 4.92833L26.1176 5.17622L25.7679 5.46544L26.1118 5.74875L25.867 5.99664L25.4939 5.68972L25.1267 5.99074L24.8819 5.74284L25.22 5.45953L24.8761 5.17032L25.1209 4.92242L25.4939 5.22934L25.8728 4.92833ZM26.4673 3.18127C26.9745 3.21078 27.0677 3.72427 27.0677 3.72427C26.9802 4.3499 27.3999 4.53876 27.3999 4.53876L27.3882 4.69812L27.0328 4.46204C26.5839 3.55311 25.8378 3.38195 25.8378 3.38195L25.7795 3.22259L26.4673 3.18127ZM27.6797 5.60702C27.0619 5.5244 26.613 5.8431 26.2866 6.33887V4.9283H26.2924C26.3916 4.78075 26.4848 4.30859 26.4848 4.30859C26.4848 4.30859 26.8288 4.82797 27.295 5.13487C27.5631 5.31193 27.6564 5.48899 27.6797 5.60702ZM25.7213 19.9317V12.3651C28.8745 12.5127 31.4333 15.7884 31.6722 19.9317H25.7213ZM26.2866 22.0211C26.2866 22.0211 26.5956 22.0683 26.7588 21.9503L26.7996 22.1746C26.7996 22.1746 26.5839 22.3044 26.3449 22.2631L26.2866 22.0211ZM30.3783 22.7648L30.1101 22.5995C30.1101 22.5995 30.2267 22.4933 30.2151 22.3634C30.2151 22.3634 27.9594 21.6375 26.852 22.7057C26.852 22.7057 26.5897 22.8415 26.3391 22.8415L26.3099 22.5995C26.3099 22.5995 26.7937 22.6703 27.26 22.1096L27.2017 21.9208C27.2017 21.9208 26.9394 21.9975 26.9977 21.785C27.056 21.5725 27.2775 21.5194 27.1609 21.3542C27.0443 21.1889 26.9744 21.2951 26.9744 21.2951L26.8579 21.5194L26.7705 21.3601C26.7705 21.3601 26.8753 20.9705 27.2367 21.0354C27.5922 21.1063 27.7088 21.3364 27.7088 21.5843C27.7088 21.5843 28.2625 21.5076 28.7929 21.5725C29.3233 21.6434 29.8071 21.7083 29.9236 21.3955L29.8071 21.2361L29.9703 21.1063C29.9703 21.1063 30.2617 21.2538 30.1568 21.4663C30.0519 21.6788 29.743 21.9444 29.4399 21.9444C29.4399 21.9444 30.0693 22.1864 30.4482 22.1864C30.4482 22.21 30.5415 22.5582 30.3783 22.7648ZM28.4665 22.6762C28.4665 22.6762 28.8337 22.629 28.9678 22.4106L29.2067 22.5405C29.2067 22.5405 28.9911 22.8415 28.6821 22.8946L28.4665 22.6762ZM28.7755 24.3996C28.7755 24.3996 29.1019 24.4114 29.2417 24.134L29.3991 24.2049C29.3991 24.2049 29.3408 24.5177 29.0028 24.618L28.7755 24.3996ZM26.2516 24.1164L26.2633 23.8508C26.2633 23.8508 26.4382 23.9216 26.7004 23.8803V24.1341C26.6946 24.1341 26.3682 24.1754 26.2516 24.1164ZM26.3741 26.1349L26.1876 25.7926C26.1876 25.7926 26.6131 25.9578 26.8229 25.8634C26.8288 25.8575 26.5956 26.1054 26.3741 26.1349ZM24.9752 27.5219C25.4298 27.5927 25.8145 27.7167 25.8145 27.7167C25.8145 27.7167 26.1817 27.3153 26.479 27.6695C26.479 27.6695 25.7446 27.9941 25.5697 28.9739C25.5697 28.9739 25.0743 28.7968 24.1884 28.2479C24.1884 28.2479 24.3924 27.4393 24.9752 27.5219ZM20.7612 18.8221L20.732 19.0287L20.2366 18.9992L20.2482 18.769L20.7612 18.8221ZM20.9476 17.4351L20.5222 17.376L20.5571 17.14L20.9826 17.1931L20.9476 17.4351ZM22.7895 17.6711C22.7895 17.6711 23.0634 17.801 23.2558 17.5236L23.4423 17.7243C23.4423 17.7243 23.2441 18.0135 23.0051 17.9958L22.7895 17.6711ZM23.2092 19.0346C23.2092 19.0346 23.18 19.3769 22.7953 19.4832L22.6146 19.2825C22.6146 19.2825 22.941 19.2766 22.9935 18.9283C22.9935 18.9106 23.2092 19.0346 23.2092 19.0346ZM22.4922 18.7867C21.4897 19.0523 21.3848 19.4772 20.6213 19.5009L20.5863 19.2589C20.5863 19.2589 21.0701 19.2825 21.3498 18.8752L21.2799 18.7513C21.2799 18.7513 21.1866 18.8398 21.0351 18.7808C21.0351 18.7808 21.2508 18.6686 21.1925 18.4797C21.1342 18.2909 21.105 18.5742 20.9069 18.3676C20.9069 18.3676 21.105 17.8895 21.414 18.2496C21.414 18.2496 21.5072 18.4502 22.0434 18.4089C22.5797 18.3735 23.5064 18.462 23.7395 18.2378C23.9727 18.0194 24.0077 18.3971 23.792 18.4679L23.5763 18.5329C23.5763 18.5329 24.13 18.7513 24.3807 19.1526C24.3807 19.1526 24.3399 19.3946 24.1708 19.4595L24.0135 19.3002L24.1067 19.188C24.1009 19.1939 23.4889 18.5211 22.4922 18.7867ZM21.4431 15.564L21.379 15.2867C21.379 15.2867 21.6995 15.446 21.9793 15.387C21.9851 15.387 21.8569 15.5877 21.4431 15.564ZM23.6813 15.8356C23.6521 16.0481 23.4073 16.2487 23.4073 16.2487C23.2092 16.1838 23.1509 16.0363 23.1509 16.0363C23.4714 15.9536 23.5472 15.7471 23.5472 15.7471L23.6813 15.8356ZM22.364 15.2926C22.364 15.2926 22.3232 15.328 22.16 15.2513C22.16 15.2513 22.3873 15.1804 22.364 14.9267C22.3407 14.6788 22.16 14.9798 22.0143 14.7083C22.0143 14.7083 22.2824 14.4368 22.4864 14.6375C22.6904 14.8381 22.5738 15.0565 22.5738 15.0565C22.5738 15.0565 22.8303 15.2985 23.3082 15.1982C23.7861 15.0978 24.2641 14.903 24.3981 14.8381C24.5322 14.7732 24.7479 15.1096 24.4856 15.2395C24.2233 15.3693 24.2 15.2336 24.1359 15.4224C24.1359 15.4224 24.5497 15.6408 24.6196 15.93C24.6196 15.93 24.5963 16.113 24.4739 16.231L24.2699 16.1484C24.2699 16.1484 24.3807 16.0481 24.3573 15.8887C24.3573 15.8887 24.1475 15.8887 23.9202 15.6113C23.9202 15.6113 23.4831 15.3752 22.7137 15.6939C21.9443 16.0126 21.5655 16.054 21.5655 16.054L21.5013 15.8238C21.5013 15.8238 22.0609 15.7707 22.3873 15.4519L22.364 15.2926ZM21.6937 17.016C21.6937 17.016 21.6005 17.1931 21.3965 17.1282C21.3965 17.1282 21.5946 16.8921 21.5247 16.7091C21.4606 16.5262 21.3265 16.8921 21.175 16.5321C21.175 16.5321 21.4431 16.3196 21.6413 16.4376C21.8394 16.5557 21.8278 16.774 21.8278 16.774C21.8278 16.774 22.3115 17.0632 23.0051 16.898C23.6929 16.7386 23.9027 16.774 23.9027 16.774C23.9027 16.774 24.0193 16.6029 24.1301 16.6619C24.2408 16.7209 24.1709 16.957 23.9027 17.0632C23.9027 17.0632 24.4448 17.3584 24.4856 17.7361L24.2874 17.8364C24.2874 17.8364 24.1709 17.2993 23.4773 17.2639C23.4773 17.2639 22.4456 17.5059 21.8686 17.4115C21.8686 17.4115 21.5946 17.7007 21.105 17.7774L20.9768 17.5472C20.9768 17.5472 21.4781 17.4882 21.8103 17.1282L21.6937 17.016ZM23.2266 28.8027C22.9527 29.21 22.3232 29.269 21.8161 28.9208C21.309 28.5784 21.1225 27.9646 21.3906 27.5573C21.6646 27.1501 22.2941 27.0911 22.8011 27.4393C23.3082 27.7816 23.4947 28.3896 23.2266 28.8027ZM21.6121 26.9553C20.2133 25.4503 19.3157 23.1484 19.3157 20.5751C19.3157 20.516 19.3157 20.4511 19.3215 20.3921H25.2899V24.2344V27.1619C24.4273 26.9907 24.0601 27.6223 24.0601 27.6223L23.3665 27.4865C22.6787 26.7487 22.0376 26.7841 21.6121 26.9553ZM28.7638 25.9401C28.7638 25.9401 28.7522 26.312 28.5248 26.4123L28.2276 26.306C28.2276 26.306 28.519 26.1585 28.6239 25.8929L28.7638 25.9401ZM29.5448 25.9991L29.3059 26.0286C29.3059 26.0286 29.2067 25.5565 28.245 25.7276C27.2775 25.8929 27.4815 26.2293 26.7354 26.548L26.5139 26.3828C26.5139 26.3828 27.0443 26.1467 27.2775 25.7866C27.2775 25.7866 27.1725 25.6863 27.2483 25.5151C27.3241 25.3381 27.1143 25.0666 26.8053 25.3794C26.782 25.403 26.7587 24.919 27.2308 24.9013C27.703 24.8836 27.7263 25.3027 27.7263 25.3027C27.7263 25.3027 28.927 25.4974 29.2534 25.285C29.5798 25.0725 29.4457 24.9721 29.4457 24.9721L29.6497 24.8836C29.6497 24.8836 29.912 25.3735 29.3699 25.5801C29.3642 25.5683 29.673 25.7335 29.5448 25.9991ZM29.3175 23.9511C29.3175 23.9511 28.6822 24.1163 28.2042 24.0868C28.2042 24.0868 27.3707 24.683 26.5781 24.5L26.5897 24.3052C26.5897 24.3052 27.1726 24.4351 27.5165 23.9747L27.1085 23.9334L27.295 23.4612C27.295 23.4612 27.1609 23.3608 26.9686 23.5025C26.9686 23.5025 27.0851 23.0244 27.464 23.2841C27.8429 23.5438 27.7263 23.6146 27.7263 23.6146C27.7263 23.6146 29.3699 23.6914 29.638 23.5084L29.5973 23.2133L29.7838 23.1248C29.7838 23.1248 30.1102 23.5084 29.8013 23.7209L30.4657 24.3111L30.2442 24.6357L30.0868 24.5295L30.1451 24.3406C30.1451 24.3406 29.8479 23.9511 29.3175 23.9511ZM33.0769 18.6391L32.2551 20.2091C32.1269 15.8061 29.6497 12.2116 26.4615 11.6037C29.7371 12.0759 32.3833 14.9325 33.0769 18.6391ZM30.5998 8.62309C30.728 9.34907 30.1044 10.0278 30.1044 10.0278C30.1044 10.0278 30.2151 9.27234 30.1859 8.81786C30.1568 8.36339 29.9412 7.82037 29.9412 7.82037C29.9412 7.82037 30.4657 7.8971 30.5998 8.62309ZM33.957 13.758C34.161 13.8465 35.3326 16.6796 35.3326 16.6796C34.6798 16.5615 34.3301 17.0455 34.1902 17.3111C33.823 15.93 33.246 14.6669 32.5057 13.5809C32.9196 13.6163 33.7997 13.6872 33.957 13.758ZM35.8222 17.0691C36.5042 17.016 36.644 16.6796 37.256 16.591C37.868 16.5025 38.6025 16.7681 38.6025 16.7681C38.6025 16.7681 37.8564 16.3786 37.8564 15.8769C37.8564 15.3752 38.4451 14.7378 38.4451 14.7378L38.2003 14.6669C37.4309 14.8735 37.0753 15.93 37.0753 15.93C36.4284 15.7175 36.7198 13.876 37.868 13.7167C39.0163 13.5632 41.3419 14.6551 41.3419 14.6551C41.3419 14.6551 40.6308 16.0658 41.2836 16.8094C41.9364 17.5531 42.2569 17.8659 41.8956 17.9426C41.5342 18.0135 41.4817 17.4233 41.4817 17.4233C40.8231 18.8634 42.3968 18.7335 42.3968 18.7335C42.3152 19.1231 42.6125 19.2352 42.6125 19.2352L42.5892 19.4831C42.222 19.4831 42.2278 19.9907 42.2278 20.3035C42.2278 20.6222 42.4435 20.6458 42.4435 20.6458L42.4143 20.8052C42.4143 20.8052 42.1112 20.8111 42.0355 21.2833C41.9597 21.7555 42.1345 21.9856 42.1345 21.9856C42.1345 21.9856 41.1962 22.1037 40.7707 21.8853C40.3452 21.6669 38.8123 20.1205 38.5325 19.8136C38.2528 19.5067 37.7223 18.5624 38.7191 18.3086C39.7215 18.0489 39.9313 17.3996 39.9313 17.3996L39.2086 17.6652C38.9988 18.0371 38.1362 17.8423 37.0753 17.8659C36.0145 17.8895 35.828 17.7951 35.4725 17.6889C35.1169 17.5826 34.6215 17.8895 34.6215 17.8895L34.4525 18.1846L34.8605 18.0843C34.3301 18.403 34.1436 19.0818 34.1203 20.0674C34.0969 21.0531 33.6248 21.2065 33.6248 21.2065L33.5432 20.7875C33.4267 20.6635 33.1819 20.7757 33.2809 21.1416C33.38 21.5076 33.1003 21.7377 33.1003 21.7377C33.1003 21.7377 33.4791 22.1096 32.6748 22.2748C31.8705 22.4401 31.9229 21.9502 31.9229 21.9502C32.1793 21.7909 32.7739 20.7462 32.7739 20.7462C32.7739 20.7462 32.6282 20.3566 33.1003 20.0025C33.5724 19.6484 34.3884 17.6534 34.6798 17.2698C34.9712 16.8862 35.1403 17.1222 35.8222 17.0691ZM37.3959 12.7369L37.5183 11.8752L38.0137 11.9933L37.8156 12.5894L38.5616 12.6602C38.5616 12.6602 38.1945 12.4772 38.3226 12.2412C38.4509 12.0051 38.6724 12.2176 38.6724 12.2176L38.9463 11.8516L39.0046 12.2766C39.0046 12.2766 39.2202 12.1349 39.3252 12.3415C39.4242 12.5481 38.9172 12.7369 38.9172 12.7369C38.9172 12.7369 39.2086 13.0379 39.8439 12.9435L39.8789 12.7546L39.669 12.7782L39.8848 12.1408L40.8639 12.4949L40.6307 13.097L40.4734 12.9494L40.3743 13.1324C40.3743 13.1324 40.5842 13.4747 41.167 13.4334C41.167 13.4334 41.3535 13.2858 41.2602 13.2268C41.167 13.1678 41.0505 13.2327 41.0505 13.2327C41.0505 13.2327 40.963 12.8373 41.4351 12.9612L41.6974 12.7192V13.0911C41.6974 13.0911 42.1462 13.2327 41.7965 13.5455C41.7965 13.5455 41.7557 13.2976 41.6158 13.4275C41.4759 13.5573 41.575 13.758 42.0646 13.876C42.0646 13.876 41.8023 13.9941 41.5342 14.3069C41.5342 14.3069 40.1062 13.457 37.5649 13.0497C37.5708 13.0615 37.2793 12.9435 37.3959 12.7369ZM41.3185 9.7091C41.9713 9.04215 41.8314 8.086 41.8314 8.086L42.4259 8.54047C42.4259 8.54047 42.4493 9.14249 42.3968 10.1045C42.3443 11.0666 42.8339 11.4325 42.8339 11.4325C42.8106 12.4182 42.1287 12.9671 42.1287 12.9671C42.0646 12.7605 41.7615 12.4241 41.7615 12.4241C41.5517 12.4182 41.1262 12.6956 41.1262 12.6956L41.2545 12.3415L39.2494 11.6627C39.8148 10.4587 40.6657 10.376 41.3185 9.7091ZM38.7482 9.41401C38.2119 9.53206 38.2352 9.56157 37.8913 9.57337C37.5533 9.58518 37.5125 9.74453 37.5125 9.74453C37.5125 9.74453 37.5125 9.44942 37.256 9.33138L37.1745 9.3845C37.1745 9.3845 37.4891 9.59108 37.2619 9.86258C37.0345 10.1341 36.7256 10.2462 36.4691 10.1931L36.7139 10.016C36.7139 10.016 36.9587 10.0278 37.0462 9.83307C37.1336 9.63239 37.1336 9.49664 36.6499 9.50845C36.6499 9.50845 36.0379 9.86848 35.793 9.51435C35.793 9.51435 35.9446 8.97725 35.9446 8.64082C35.9446 8.3044 36.2943 8.28669 36.8597 8.00929C37.425 7.73188 38.2935 7.18888 38.2935 7.18888C38.2935 7.18888 38.4742 6.74622 39.0279 6.72851C39.0279 6.72851 39.3893 6.29765 39.8556 6.36257C40.3219 6.4275 40.2402 6.51603 40.2402 6.51603C40.2402 6.51603 40.3043 6.9705 40.5725 7.05313C40.5725 7.05313 40.5433 7.18298 40.689 7.17708C40.9163 7.17118 40.8814 6.90558 40.8814 6.90558C40.8814 6.90558 41.3477 6.84655 41.3127 6.39208C41.2836 6.00844 41.2486 5.57758 41.2486 5.57758C41.2486 5.57758 40.8231 5.8845 40.8872 6.48062L40.6774 6.51013C40.6774 6.48652 40.5142 5.48905 41.4526 5.28247C41.4526 5.28247 41.4526 5.91401 41.5283 6.36848C41.6099 6.84655 41.0154 7.08854 40.9339 7.28922C40.9339 7.28922 40.8756 7.43677 41.0038 7.41907C41.132 7.40726 41.3885 7.242 41.3885 7.242C41.3885 7.242 41.3885 7.48989 41.336 7.67286C41.336 7.67286 41.948 8.19226 41.0387 9.03037C40.1295 9.86848 39.2843 9.29597 38.7482 9.41401ZM36.1894 2.21334L36.2826 2.14252L38.9638 5.67789C39.0512 5.79003 39.0279 5.94939 38.9172 6.03792C38.8006 6.13235 38.6257 6.10284 38.5442 5.97299L36.1894 2.21334ZM43.137 7.41902C43.8306 8.04466 43.6033 9.04803 43.4285 9.70907C43.2536 10.3701 43.9122 10.6357 43.9122 10.6357C43.3585 10.8836 42.8806 10.4941 42.8514 9.85073C42.8223 9.20739 43.2362 8.77653 43.003 8.09778C42.7174 7.26557 42.0646 7.53707 42.0646 7.53707L41.9655 7.17113C41.9713 7.17113 42.4435 6.79339 43.137 7.41902ZM43.7957 6.66947C44.2386 7.05311 44.6874 7.2951 44.6874 7.2951C44.192 7.42495 43.6674 6.96458 43.1429 6.68718C42.6125 6.40978 42.2278 6.81703 42.2278 6.81703L42.0179 6.49241C42.6825 5.96711 43.3585 6.28583 43.7957 6.66947ZM45.4802 9.9983C45.4802 9.9983 45.5384 10.5885 45.3519 10.9839C45.3519 10.9839 45.1071 9.93338 44.4601 9.36088L44.396 8.97134C44.3901 8.96544 45.0546 9.07758 45.4802 9.9983ZM43.5859 13.7108C42.9913 14.0118 43.3236 14.5489 43.3236 14.5489C42.6008 14.0944 43.3294 13.3566 43.6849 12.9199C44.0405 12.4831 43.7782 11.4089 43.7782 11.4089C44.6991 11.1492 44.4543 10.2934 44.4543 10.2934C46.0163 11.8988 44.1803 13.4098 43.5859 13.7108ZM42.6825 22.7471C42.6475 22.9654 42.6475 23.3432 42.4143 23.3137L42.3793 23.7563C42.3793 23.7563 42.6125 23.7917 42.5775 24.1518C42.5425 24.5118 42.5368 24.7302 42.3619 24.7302L42.3502 25.2023L42.0879 25.1964L42.0821 24.7125C42.0821 24.7125 41.9014 24.7479 41.8547 24.5236C41.8082 24.2993 41.8023 23.7209 42.117 23.7209L42.152 23.2723C42.152 23.2723 41.9655 23.2428 42.0005 22.8238C42.0354 22.4047 42.1403 22.3634 42.391 22.3516C42.6358 22.3398 42.7174 22.5228 42.6825 22.7471ZM39.4126 29.1214C40.4093 30.113 41.744 29.7766 41.744 28.8676C41.744 27.9587 41.0912 28.1771 41.0912 28.1771C41.4409 28.8204 40.7998 28.9266 40.6249 28.3246C40.4501 27.7226 39.8265 27.0911 39.8265 27.0911C39.8265 27.0911 39.6516 25.6214 41.062 25.462C41.3127 25.4325 41.54 25.4266 41.7382 25.4325C41.7265 25.462 41.7207 25.4916 41.7207 25.527L41.6974 25.9165C41.6857 26.1172 41.8373 26.2884 42.0354 26.3002C42.0471 26.3887 42.0587 26.4831 42.0762 26.5835C41.9596 26.6484 41.8897 26.7841 41.9188 26.9258L41.9888 27.2858C42.0179 27.4216 42.1287 27.5219 42.2569 27.5396C42.2744 27.6046 42.286 27.6695 42.3036 27.7344C42.2103 27.8111 42.1695 27.941 42.1986 28.0649L42.2919 28.4191C42.3268 28.5548 42.4434 28.6492 42.5775 28.6551C42.6008 28.726 42.6299 28.8027 42.6533 28.8735C42.5659 28.968 42.5367 29.1096 42.595 29.2336L42.7465 29.57C42.799 29.6821 42.9097 29.753 43.0263 29.753C43.0612 29.8179 43.0904 29.8887 43.1254 29.9536C43.0263 30.0717 43.0088 30.2487 43.0962 30.3845L43.306 30.7091C43.3876 30.839 43.5392 30.898 43.6849 30.8685C43.7257 30.9334 43.7723 30.9924 43.819 31.0514C43.7315 31.1813 43.7374 31.3584 43.8481 31.4823L44.0638 31.7243C44.1687 31.8423 44.3377 31.8719 44.4718 31.8069C44.5825 31.9191 44.6991 32.0312 44.8215 32.1375C43.1953 31.7833 40.6133 30.5793 38.2177 29.7648C39.0979 29.6703 39.3426 29.3044 39.4126 29.1214ZM39.7682 23.833C39.7682 23.833 40.3043 24.1517 40.4326 24.6062C40.5608 25.0607 39.7506 25.3322 39.4768 26.1585C39.4768 26.1585 39.057 26.2293 39.0105 25.6273C38.9638 25.0253 38.8414 25.1256 38.7482 25.2378C38.6549 25.3499 38.5033 25.6922 38.1945 25.4502C38.2003 25.4502 38.0371 23.7976 39.7682 23.833ZM34.5574 19.3002C34.9421 17.8423 36.1078 18.1316 36.1078 18.1316C36.1078 18.1316 36.4109 19.7605 37.1103 20.6577C37.8039 21.5548 39.7332 22.57 39.7332 22.57C39.7332 22.57 38.6608 23.1897 37.9905 23.8625C37.3202 24.5354 37.8622 26.4064 37.8622 26.4064C37.53 26.3355 37.122 26.3946 37.122 26.3946C37.122 26.3946 37.6174 25.2495 36.44 25.2495C35.2626 25.2495 34.6099 26.129 34.6099 26.129C34.6099 25.4974 34.1145 25.22 33.9105 25.1315C34.3767 23.7917 34.6331 22.3103 34.6331 20.7639C34.6331 20.2622 34.604 19.7783 34.5574 19.3002ZM36.4691 28.124C36.4691 28.124 36.0262 28.7024 34.4467 28.5548C34.4467 28.5548 35.0994 27.5455 36.4691 28.124ZM34.2776 27.7875L34.2485 27.7167C34.2485 27.7167 35.5949 26.4123 37.8272 26.7251C40.0596 27.038 40.4559 29.0919 40.4559 29.0919C40.4559 29.0919 40.0479 29.1096 39.43 28.0826C38.8122 27.0557 37.5242 27.0321 37.5242 27.0321C38.8997 27.6577 38.6549 28.3659 38.6549 28.3659C36.7023 26.312 34.2776 27.7875 34.2776 27.7875ZM43.341 26.7251C43.2711 27.1796 42.933 27.2681 42.933 27.2681C43.5159 28.3718 44.4135 27.575 44.4135 27.575C44.5009 27.7521 44.6466 27.6931 45.4859 28.2774C45.7249 28.4427 45.9056 28.7083 46.0397 29.0093C45.0896 29.2867 44.839 29.8002 44.839 29.8002V31.4233C44.839 31.4233 45.1479 31.8718 45.789 31.8718C45.993 31.8718 46.1621 31.8128 46.2903 31.7184C46.2786 31.8836 46.2437 32.0666 46.1796 32.2319C46.0105 32.2437 45.8299 32.2496 45.6375 32.2496C45.6025 32.2496 45.5676 32.2437 45.5326 32.2437C45.247 32.043 44.9847 31.8187 44.7457 31.5826C44.8215 31.4528 44.8157 31.2816 44.7107 31.1636L44.4951 30.9216C44.3902 30.8035 44.2328 30.774 44.0987 30.833C44.0638 30.7858 44.0346 30.7445 43.9996 30.6973C44.1105 30.5793 44.1279 30.3963 44.0405 30.2546L43.8306 29.93C43.7432 29.7943 43.5859 29.7352 43.4402 29.7766C43.4168 29.7293 43.3876 29.6821 43.3643 29.629C43.4576 29.5346 43.4867 29.3929 43.4284 29.2631L43.2769 28.9266C43.2244 28.8086 43.1079 28.7437 42.9913 28.7378C42.968 28.6728 42.9447 28.6138 42.9214 28.5489C43.003 28.4722 43.0438 28.3482 43.0146 28.2302L42.9214 27.876C42.8864 27.7462 42.7756 27.6518 42.6474 27.64C42.6299 27.5809 42.6183 27.516 42.6008 27.457C42.6882 27.3862 42.7348 27.2622 42.7116 27.1442L42.6416 26.7841C42.6183 26.6661 42.5308 26.5776 42.4259 26.5422C42.4084 26.4418 42.3968 26.3415 42.3851 26.2529C42.4784 26.1939 42.5425 26.0877 42.5542 25.9637L42.5716 25.586C42.9039 25.7217 43.0671 25.9283 43.1079 26.1113C43.1953 26.4772 42.8048 26.6248 42.8048 26.6248C43.0496 26.9022 43.341 26.7251 43.341 26.7251ZM43.2595 16.4022C43.2595 16.4022 43.1895 16.6028 42.7815 16.6147C42.7815 16.6147 43.0147 17.0927 42.9972 17.5649L42.8573 17.5236C42.8573 17.5236 43.0322 17.9722 42.6416 18.2378C42.2511 18.5034 41.8897 18.2496 41.8897 18.2496C41.8897 18.2496 42.6358 18.1787 42.4493 17.5826C42.2627 16.9865 41.7265 16.8094 41.6566 15.8356C41.6566 15.8356 41.6624 15.1804 42.4842 14.602C42.4842 14.602 42.6708 14.7791 42.7408 14.9738C42.7408 14.9679 42.4202 16.231 43.2595 16.4022ZM19.8227 7.69647C19.8227 7.69647 19.9918 7.19478 20.0209 6.60456C20.0209 6.60456 19.7003 6.9705 19.6362 7.33644C19.6362 7.33644 19.5721 6.13828 20.9127 5.75464C20.9127 5.75464 20.7436 6.07926 20.6154 6.58685C20.4814 7.09444 19.8227 7.69647 19.8227 7.69647ZM18.931 8.44013C18.6046 8.13912 18.3598 8.08009 18.08 8.20994C18.08 8.20994 19.1 7.24787 19.5721 8.95953C19.5721 8.95953 19.2574 8.74115 18.931 8.44013ZM17.9576 7.33641C17.6603 7.43084 17.3339 7.40133 17.2465 7.33641C17.2465 7.33641 17.5379 7.33051 17.8643 7.16526C18.1907 7.00592 18.5754 7.17116 18.6279 7.35411C18.622 7.36002 18.2548 7.24198 17.9576 7.33641ZM17.841 5.66611C17.6662 5.3474 17.3748 5.16443 17.3748 5.16443C18.5055 5.371 18.5405 6.48651 18.5405 6.48651C18.2549 6.35666 18.0159 5.97893 17.841 5.66611ZM21.0642 3.03961C21.0642 3.03961 20.1375 4.14332 19.1932 4.6214C19.1874 4.6214 19.4031 3.31111 21.0642 3.03961ZM30.8213 4.38532C30.3433 3.90134 30.0577 3.16357 30.0577 3.16357C31.5965 3.80691 31.5499 5.41229 31.5499 5.41229C31.5499 5.41229 31.2992 4.8693 30.8213 4.38532ZM30.0694 5.17622C30.0694 5.17622 31.0136 4.90472 31.2002 6.01434C31.2002 6.01434 30.8621 5.3651 30.0694 5.17622ZM32.3483 7.97977C32.9196 7.77909 33.2284 7.35413 33.2284 7.35413C33.2693 7.82631 32.8671 8.18635 32.5116 8.24538C32.156 8.3044 31.509 8.68805 31.509 8.68805C31.509 8.68805 31.7713 8.17455 32.3483 7.97977ZM32.7447 5.83727C32.4825 5.94941 32.0686 6.52783 32.0686 6.52783C32.5699 5.17621 33.6073 5.32377 33.6073 5.32377C33.2285 5.46542 33.0536 5.90219 32.7505 6.457C32.4474 7.01181 31.7655 7.30103 31.7655 7.30103C32.3017 7.00001 32.7447 5.83727 32.7447 5.83727ZM49.869 15.9477C49.869 15.9477 50.5335 15.387 49.6534 14.9503C49.6534 14.9503 49.8573 15.5523 49.3036 15.5523C48.7499 15.5523 48.9423 14.4781 47.6659 14.4958C47.6659 14.4958 47.287 14.3777 46.6225 14.3777C45.958 14.3777 44.9264 15.1096 44.9264 16.4494C44.9264 17.7892 46.3486 19.1231 46.3486 19.1231C46.3486 19.1231 45.346 19.7251 46.3194 20.5455C46.3194 20.5455 47.1296 19.2943 48.1613 20.6164C49.1929 21.9384 48.3653 23.113 47.9282 23.3019C47.5434 23.473 47.1529 23.6265 46.7566 23.2605C46.7042 22.0919 46.0105 20.9587 45.2003 20.4865C43.8947 19.7251 43.3002 18.6627 43.3002 18.6627C43.3002 18.6627 43.7374 18.3676 43.953 18.9578C44.1687 19.5481 44.4193 19.489 44.4193 19.489C44.4193 19.489 44.1862 19.489 44.3202 18.9578C44.4484 18.4266 44.0754 17.8423 44.0754 17.8423C44.5825 17.3997 44.0638 16.9629 44.0638 16.9629C44.0638 16.9629 43.9763 17.317 43.7316 17.317C43.4867 17.317 43.411 17.1282 43.411 17.1282C44.804 16.6147 43.9472 15.5995 43.9472 15.5995C43.9472 15.5995 43.9588 15.9359 43.4984 15.9359C43.0379 15.9359 43.2653 15.2749 43.2653 15.2749C43.2653 15.2749 43.2536 15.4637 43.8482 15.4637C44.4426 15.4637 44.5417 14.9503 44.5417 14.9503C44.192 15.2867 43.7432 14.9089 44.3843 14.4191C45.0196 13.9351 44.938 13.156 44.938 13.156C45.8648 12.4831 45.7366 11.7926 45.7366 11.7926C45.7366 11.7926 45.9406 11.9992 46.3719 11.9992C46.809 11.9992 46.8207 11.5565 46.8207 11.5565C47.182 11.527 47.3453 11.7454 47.3453 11.7454C47.5784 11.3499 47.3453 11.043 46.9839 10.925C46.6225 10.8069 46.1562 10.5295 46.0979 10.0573C46.0396 9.58516 45.4276 8.95363 45.4276 8.95363C45.8648 8.91231 45.7599 8.73524 46.2087 8.70573C46.6575 8.67622 46.9897 9.08938 46.9897 9.08938C46.9897 7.40135 45.1596 7.76728 45.1596 7.76728C45.824 7.31282 45.4626 6.59275 45.4626 6.59275C45.4626 7.04722 44.6642 7.16526 43.9122 6.1973C43.2594 5.35329 42.56 5.50084 42.3851 5.55396C42.49 5.51265 42.7523 5.35329 42.7523 4.81619C42.7523 4.15514 41.8664 4.15514 41.8664 4.15514C41.8664 4.15514 42.4202 4.47976 41.9946 4.77487C41.5691 5.06998 41.2544 4.70405 40.3568 4.70405C39.4592 4.70405 39.2552 5.61298 39.2552 5.61298C37.629 3.47049 36.2535 1.80607 35.7114 1.26307C35.6356 1.18634 35.5074 1.28078 35.5599 1.37521C36.3992 3.08094 38.2468 5.97892 38.2468 5.97892C38.2468 5.97892 38.1711 5.96121 37.629 6.13828C37.087 6.31535 37.2036 5.68971 37.2036 5.68971C36.679 5.96121 36.8946 6.90556 37.5882 6.7285C38.2819 6.55143 38.4392 6.7285 38.4392 6.7285C38.4392 6.7285 37.6465 7.2597 36.9704 7.64924C36.2943 8.03879 35.7114 8.06239 35.6764 8.76476C35.6356 9.46712 35.1752 9.54975 35.6356 9.82125C36.1019 10.0927 36.644 9.77993 36.644 9.77993C36.644 9.77993 36.0844 10.2521 36.0611 10.3465C36.0436 10.4469 36.4459 10.6417 36.778 10.6003C37.1044 10.559 37.629 10.1282 37.629 10.1282C38.3809 10.0278 39.0628 9.79764 39.0628 9.79764C39.2552 10.0514 40.147 10.0927 40.147 10.0927C38.8297 10.7597 38.1362 11.7572 38.1362 11.7572L37.3026 11.5624L37.1278 12.5835C36.9179 12.7015 37.0112 13.1324 37.0112 13.1324C36.3526 13.2681 36.0028 14.9148 36.0028 14.9148C36.0028 14.9148 35.5191 14.2302 35.3676 14.0118C35.2102 13.7993 35.3093 13.5632 35.1344 13.2268C34.9596 12.8963 34.6506 12.8727 34.2834 12.8373C33.9162 12.796 32.4649 12.3887 32.4649 12.3887C32.2143 11.9992 32.0977 11.4266 32.0977 11.4266C31.9054 11.6037 31.6314 11.8575 31.6314 11.8575C31.5556 11.3853 30.9145 11.0961 30.9145 11.0961C30.9437 11.2378 30.897 11.4975 30.8446 11.7099C30.5648 11.4621 30.2676 11.226 29.9645 11.0194C30.1393 10.8954 30.5007 10.7597 31.2526 10.7597C32.6865 10.7597 32.8204 9.17201 32.8204 9.17201C32.529 9.47892 31.952 9.47892 31.952 9.47892L32.0511 9.06577L31.136 9.28415C31.8471 8.37521 33.3859 9.03626 33.3859 8.75295C33.3859 8.47555 33.007 8.32799 33.007 8.32799C33.8754 7.93255 33.6306 6.91737 33.6306 6.91737C32.9079 7.04722 31.7596 7.8145 31.7596 7.8145C32.0336 7.25379 32.9662 6.94688 33.2984 6.1973C33.6306 5.44772 34.2251 5.30017 34.2251 5.30017C33.6015 4.8457 32.9603 5.1231 32.9603 5.1231C34.1785 3.96037 33.106 3.2403 33.106 3.2403L33.007 3.54722C32.8613 3.2226 32.3425 2.88617 32.3425 2.88617C32.3833 4.69224 31.8354 4.72175 31.8354 4.72175C32.2259 3.09275 31.0369 2.59106 31.0369 2.59106C31.066 2.82715 30.9962 3.19309 30.9962 3.19309C30.6639 2.80944 29.2825 2.80944 29.2825 2.80944C29.2825 2.80944 29.7779 2.93929 29.9179 3.55902C30.0636 4.17875 30.9028 4.99916 30.9028 4.99916C29.6556 4.17875 29.4399 5.35329 29.4399 5.35329C31.7305 5.45363 31.1651 7.74958 31.1651 7.74958C30.9203 5.63659 29.1951 5.82546 29.1951 5.82546C29.469 7.04722 30.2676 7.70826 30.2676 7.70826L29.8479 7.48988C29.5157 7.93255 29.673 8.54637 29.673 8.54637L29.4107 8.45784C29.2359 9.01855 29.7022 9.60287 29.7022 10.1636C29.7022 10.6062 29.2417 10.7833 29.0552 10.8364H28.3849V9.40809C28.3849 9.40809 30.5765 6.69309 28.111 5.71922C28.1051 5.71922 28.0993 5.71332 28.0935 5.71332L28.2276 5.07589C28.2276 5.07589 27.7613 4.60371 27.5631 4.32631C27.3649 4.0489 27.4931 3.60624 27.4931 3.60624C28.076 3.2403 27.9711 2.6796 27.9711 2.6796C27.9711 1.74115 26.4323 1.94772 25.9719 1.94772C25.5114 1.94772 25.5814 1.37521 26.0593 1.38702C26.5373 1.39882 26.7413 1.44604 27.0036 1.22766C27.2659 1.00927 27.4699 1.13912 27.4699 1.13912C27.3416 0.714165 27.021 0.832209 27.021 0.832209C27.0502 0.684654 26.8462 0.537099 26.8462 0.537099C26.9162 0.784992 26.7296 0.950253 26.7296 0.950253C26.1759 0.584317 26.0651 0.86172 25.8728 1.0683C25.6863 1.27487 25.2375 1.28668 25.2375 1.85919C25.2375 2.4317 26.3274 2.25464 26.3274 2.25464L26.3566 2.47302C26.8054 2.19562 27.1551 2.4317 27.3882 2.62057C27.6214 2.80944 27.3474 3.15177 27.1143 3.03373C26.8811 2.91568 26.479 2.90388 26.1118 2.9747C25.7504 3.04553 25.2142 2.9629 25.2142 2.9629C25.3424 2.12479 24.8062 1.85919 24.8062 1.85919C24.8062 1.85919 24.8062 1.80017 24.7479 1.44604C24.7362 1.3575 24.6954 1.28078 24.6546 1.20995C24.6779 1.16863 24.6896 1.12732 24.6896 1.0742C24.6896 0.926644 24.573 0.8086 24.4273 0.8086C24.3749 0.8086 24.3282 0.826307 24.2874 0.849916L24.4565 0.218381H24.0951V0.206577C24.0951 0.0944351 24.0018 0 23.8911 0C23.7803 0 23.6871 0.0944351 23.6871 0.206577V0.218381H23.2674L23.4248 0.849916L23.4131 0.86172C23.3665 0.826307 23.3141 0.802698 23.2499 0.802698C23.1042 0.802698 22.9877 0.920742 22.9877 1.0683C22.9877 1.15093 23.0226 1.22175 23.0809 1.26897C23.0226 1.37521 22.8594 1.67622 22.8011 1.99494C22.7312 2.39039 22.4223 2.30186 22.4223 2.30186C22.3931 2.62648 22.8128 2.80354 22.8128 2.80354C22.5505 2.89207 22.4339 3.28752 22.4339 3.28752C22.4339 3.28752 22.8536 2.90388 22.8245 3.52361C22.7953 4.14334 23.4365 3.99578 23.4365 3.99578L23.0867 5.6543C23.0285 5.67201 22.9643 5.68971 22.9002 5.71922C20.4231 6.69309 22.6146 9.40809 22.6146 9.40809V10.8305H21.8219C21.1342 10.5472 20.4289 9.61467 20.9593 8.91231C21.5247 8.16273 21.2041 7.08853 21.2041 7.08853C20.0442 7.73187 20.2599 9.11298 20.2599 9.11298C19.7936 8.54047 19.8694 7.70236 20.4347 7.36594C21.0001 7.02951 21.3498 6.13238 21.3498 6.13238L21.1167 6.06155L21.2915 5.50084C19.1 5.80776 19.3914 7.5253 19.3914 7.5253C19.2224 7.35413 19.0009 6.01433 20.3182 5.54216C21.6354 5.06998 21.7811 3.79511 21.7811 3.79511C21.6354 4.17875 21.0875 4.43845 21.0875 4.43845V4.11383C21.0875 4.11383 19.8519 4.68634 19.6654 5.28836C19.4789 5.89039 19.0009 6.28583 19.0009 6.28583C19.0009 6.28583 18.6978 5.19983 19.6246 4.68634C20.5513 4.17285 21.5538 2.67369 21.5538 2.67369C21.5538 2.67369 21.3498 2.89207 20.8894 2.85076C20.4289 2.80944 20.0792 2.9688 20.0792 2.9688L19.9335 2.48482C19.9335 2.48482 19.9568 2.56745 19.4672 3.05734C18.9834 3.54722 18.8435 4.42074 18.8435 4.42074C18.8435 2.76223 17.0717 3.08685 17.0717 3.08685C17.4214 3.17538 17.7827 3.81872 17.7827 3.81872H17.5205C17.9576 4.32041 18.3889 5.46543 18.3889 5.46543C18.0858 5.05228 17.5613 4.70405 17.5613 4.70405V5.04047C17.2407 4.96965 16.8677 4.53879 16.8677 4.53879C16.8793 6.00843 17.5787 6.27403 17.841 6.40388C18.1033 6.53373 18.4938 6.90556 18.4938 6.90556C17.6254 6.42749 16.8094 6.87015 16.8094 6.87015L17.0542 7.05902L16.4422 7.5312C17.1533 7.94435 18.1091 7.83811 18.1091 7.83811C17.299 8.17454 17.4563 8.97133 17.4563 8.97133C18.1383 8.49916 18.2665 8.67622 18.2665 8.67622C18.1791 8.8828 18.0042 9.04216 18.0042 9.04216C18.4997 8.85329 18.9776 9.18971 18.9776 9.18971C18.9776 9.18971 18.5987 9.30776 18.5987 9.86256C18.5987 10.4174 19.2923 10.4941 19.2923 10.4941C19.2923 10.4941 18.8261 10.0691 19.5838 10.0691C20.2715 10.0691 20.8311 10.9191 20.9302 11.0725C20.8427 11.1315 20.7553 11.1965 20.6737 11.2614C20.6271 11.1433 20.5105 10.8836 20.4347 10.8069C20.4347 10.8069 20.0559 11.3086 19.9626 11.6686C19.9626 11.6686 19.4497 11.6391 18.9543 11.7454C18.4589 11.8516 18.0742 11.5801 17.1241 12.2766C16.1741 12.973 15.189 13.3331 15.189 13.3331C15.189 13.3331 15.1774 13.1383 15.1599 13.0793C15.1599 13.0793 15.4979 12.9789 15.3989 12.6189C15.3989 12.6189 14.8859 12.8845 14.7111 12.43C14.7111 12.43 15.3581 12.371 15.3231 11.7336C15.3231 11.7336 15.1016 11.9992 14.8685 11.8516C14.6353 11.704 14.7402 11.285 14.7227 11.0017C14.7227 11.0017 14.8568 11.1965 15.2765 11.1965C15.6903 11.1965 15.7777 10.6653 15.7777 10.6653C15.7777 10.6653 15.4513 10.8423 15.3347 10.5944C15.2182 10.3524 15.2182 10.0337 15.0433 9.90978C15.0433 9.90978 15.9351 9.64418 15.4397 8.98904C15.4397 8.98904 15.3989 9.20152 15.2357 9.20152C15.0725 9.20152 14.9559 8.41653 14.5421 8.14503C14.5421 8.14503 15.1133 8.18634 15.1016 7.5253C15.1016 7.5253 14.8043 7.61383 14.5595 7.47808C14.3206 7.34233 14.0758 7.05902 13.6095 7.01771C13.6095 7.01771 14.1107 7.04722 14.1807 6.55734C14.1807 6.55734 13.9942 6.67538 13.7552 6.58685C13.5162 6.49831 13.0616 5.94941 12.199 6.35076C12.199 6.35076 12.6827 6.04975 12.3855 5.26476C12.0882 4.47976 11.348 4.77487 11.0333 4.90472L10.4737 4.62142L10.0191 5.08179C10.0191 5.08179 8.83007 4.88702 8.72515 5.79595C8.62024 6.70489 9.34298 6.89966 9.34298 6.89966L9.26721 7.04722C9.26721 7.04722 8.62024 6.51012 7.72264 7.12395C6.82504 7.73777 6.70847 8.71164 7.22138 9.26644C7.22138 9.26644 7.29133 9.00084 7.43121 8.8828C7.43121 8.8828 7.54778 9.17791 7.30298 9.44941C7.06401 9.72091 6.9183 9.74452 6.83087 9.59696C6.74344 9.44941 6.86001 9.32546 6.86001 9.32546C6.86001 9.32546 6.35875 9.45531 6.49281 10.0809C6.62687 10.7066 7.23887 10.8364 7.78092 10.5531C7.78092 10.5531 7.8567 11.1315 7.4895 11.2555C7.1223 11.3853 7.09315 11.1197 7.11064 10.9013C7.11064 10.9013 6.56858 11.3204 7.09315 11.9224C7.09315 11.9224 6.7551 11.9401 6.56858 11.6214C6.56858 11.6214 6.30047 12.3238 6.95327 12.796C7.6119 13.2681 8.36378 12.7841 8.36378 12.7841C8.36378 12.7841 8.32298 13.575 7.27967 13.6577C7.27967 13.6577 7.45453 14.1594 7.90915 14.1948C7.90915 14.1948 7.55944 14.8794 8.18892 15.1332C8.18892 15.1332 7.99658 14.6847 8.61441 14.4781C8.61441 14.4781 8.70184 14.9975 8.60275 15.5169C8.50367 16.0363 8.52698 16.5675 8.52698 16.5675C8.52698 16.5675 7.83921 18.3971 6.50447 19.7133C5.16973 21.0236 4.72676 21.1121 4.1847 22.269C3.64264 23.4258 2.36619 23.4317 2.22047 22.4933C2.07476 21.5548 2.51773 20.6105 4.13224 19.5835C5.74675 18.5565 6.94744 17.9368 6.94744 16.0776C6.94744 14.2184 4.86081 12.7487 2.69259 14.2243C2.69259 14.2243 2.05727 14.0295 1.66676 14.3423C1.28207 14.6551 1.28207 15.3693 0.786645 15.2218C0.786645 15.2218 0.769159 15.5641 1.48024 15.4283C1.48024 15.4283 1.33453 15.5877 0.76333 15.6526C0.192131 15.7234 -0.0584976 16.5734 0.0114452 16.8744C0.0114452 16.8744 0.279559 16.5911 0.611788 16.5438C0.611788 16.5438 -0.396555 17.1636 0.372816 18.1374C0.372816 18.1374 0.227102 17.4705 0.809959 17.2934C1.39282 17.1164 1.32287 17.5649 2.42447 17.1577C3.52607 16.7504 2.66344 15.7057 3.35121 14.9148C3.35121 14.9148 4.59853 13.9941 5.47864 14.8381C6.35875 15.6821 6.58024 17.1813 4.24881 18.403C4.24881 18.403 4.00984 17.8423 3.54356 18.0135C3.07727 18.1788 3.27544 18.5919 3.27544 18.5919C3.27544 18.5919 3.47944 18.3086 3.58436 18.5034C3.68927 18.6981 3.36287 18.9933 2.29624 19.9435C1.23544 20.8938 0.710873 22.812 1.9407 23.7504C3.17053 24.6889 4.28961 23.6796 4.28961 23.6796C4.28961 23.6796 4.30127 24.618 4.05647 24.9014C3.8175 25.1847 3.67761 25.3322 3.50276 25.1965C3.50276 25.1965 3.17636 25.3735 3.35704 25.7867C3.53773 26.1998 3.91658 25.9992 3.91658 25.9992C3.91658 25.9992 3.8991 27.0261 3.3279 27.2504C2.7567 27.4747 2.60516 27.516 2.53521 27.9351L2.3895 27.8761C2.3895 27.8761 2.45944 27.0852 2.68676 26.8019C2.9199 26.5185 3.21716 25.9578 2.87327 25.468C2.52356 24.9781 2.17967 25.0489 2.03396 24.6357C2.03396 24.6357 1.81247 25.0666 1.82413 25.4975C1.82413 25.4975 1.66676 25.3322 1.50356 25.2437C1.50356 25.2437 1.47442 25.7749 1.26459 26.253C1.04893 26.731 1.26459 27.3272 1.50356 27.6223C1.50356 27.6223 0.594302 27.4452 0.326188 28.3069C0.326188 28.3069 0.501045 28.2892 0.623445 28.3246C0.623445 28.3246 0.267902 28.5371 0.372816 29.1391C0.477731 29.7352 0.162988 29.5582 0.081388 29.4815C0.081388 29.4815 0.209616 29.8828 0.774987 29.7648C1.34619 29.6467 1.4103 29.2867 1.48024 29.0978C1.54436 28.9148 1.77167 28.5312 2.2263 29.1981C1.54436 29.6703 1.51522 30.4317 1.51522 30.4317V33.1998C2.36619 34.0616 3.64264 34.7403 5.56024 34.7403C10.1124 34.7403 12.368 32.2496 15.2706 31.5649C14.7402 31.7833 13.4579 32.4503 13.4696 33.7723C13.4813 35.2302 15.2998 34.9292 15.2881 34.2917C15.2881 34.2917 14.9792 34.5573 14.816 34.2622C14.6528 33.9671 14.9034 33.8196 14.9034 33.8196C14.9034 33.8196 15.3697 34.2622 15.667 33.7015C15.667 33.7015 15.4746 33.672 15.3989 33.4005C15.3231 33.129 15.6203 32.468 16.3839 32.3263C16.3839 32.3263 15.9584 33.4831 17.0775 33.796C18.1966 34.1088 18.249 33.1585 17.9984 32.9814C17.9984 32.9814 17.8702 33.3356 17.6312 33.188C17.3922 33.0405 17.2757 32.1315 18.7445 32.3971C18.7445 32.3971 18.1091 33.0995 18.8319 33.914C18.8319 33.914 18.9893 32.5801 20.359 32.887C20.359 32.887 20.4639 33.8373 21.8103 33.4241C21.8103 33.4241 21.4606 33.3179 21.6238 33.011C21.787 32.7099 22.399 32.3676 24.2641 32.9637L22.3174 33.9789C22.0726 34.1029 21.9851 34.4098 22.1192 34.6518C22.2416 34.8761 22.5155 34.9587 22.7429 34.8524L25.4823 33.5481L28.2217 34.8524C28.449 34.9587 28.7171 34.8761 28.8454 34.6518C28.9794 34.4098 28.892 34.1088 28.6472 33.9789L26.7005 32.9637C26.7005 32.9637 27.7905 32.527 28.5831 32.9814C28.5831 32.9814 28.6705 32.5978 28.9911 32.769C29.3117 32.9401 29.1426 33.2411 28.9794 33.3474C28.9794 33.3474 29.8071 33.7133 30.0461 32.9578C30.0461 32.9578 30.6581 33.0405 30.2034 33.6307C30.2034 33.6307 30.763 34.0911 31.2992 33.8137C31.8354 33.5363 31.7247 32.7513 31.3983 32.4621C31.3983 32.4621 31.8937 32.4384 32.1385 32.1551C32.1385 32.1551 33.4499 33.1408 32.4707 33.7901C32.4707 33.7901 32.698 34.1206 33.5607 33.9494C33.5607 33.9494 33.6423 34.156 33.5956 34.2917C33.5956 34.2917 36.0495 34.3153 34.3359 31.801C34.3359 31.801 35.7289 32.0725 35.6123 33.4005C35.6123 33.4005 35.1985 33.3769 35.3267 33.9376C35.455 34.4983 36.4575 34.64 36.982 33.9022C37.4367 33.2589 37.1511 32.3558 36.7839 31.9014C39.2086 32.8398 41.4293 34.7344 45.3985 34.7344C47.3162 34.7344 48.5984 34.0556 49.4436 33.1939V30.4258C49.4436 30.4258 49.4202 29.7884 48.8899 29.3162C49.2803 29.4047 49.63 29.2985 49.63 29.2985L49.3386 29.0329C50.2537 28.6197 50.108 27.8111 50.108 27.8111C49.327 28.4014 48.4819 27.9705 48.4819 27.9705C50.8016 27.7816 50.0205 25.5447 50.0205 25.5447C49.6417 26.188 48.6159 25.9874 48.5284 26.5599C48.441 27.1324 48.1787 27.4688 48.1787 27.4688C48.1787 27.4688 48.4119 26.5008 48.1204 26.0582C47.829 25.6155 47.8582 25.0725 47.8582 25.0725C46.9722 25.7631 47.2053 26.4536 47.2053 26.4536C47.048 26.4123 46.7973 26.2057 46.7973 26.2057C46.8382 26.8963 46.9431 26.8373 47.4327 27.5101C47.9223 28.183 47.3044 28.6433 47.3044 28.6433C47.3453 27.882 47.0305 27.4983 47.0305 27.4983C45.4918 26.5599 46.0163 25.2673 46.0163 25.2673C46.2903 24.9663 46.4768 24.6357 46.5876 24.2934C46.7916 24.3583 47.1237 24.4351 47.5201 24.4351C48.202 24.4351 49.5368 23.774 49.5368 21.8086C49.5368 19.8432 47.6659 19.0759 47.1704 18.7395C46.675 18.403 45.7074 17.6948 45.7074 16.3432C45.7074 14.9916 46.9547 15.3162 46.9547 15.3162C46.9547 15.3162 47.4036 15.9182 47.5084 16.5497C47.6076 17.1813 48.4643 17.4587 49.0588 17.2698C49.6533 17.0809 50.2362 17.14 50.2479 17.5177C50.2479 17.5177 50.4636 17.4469 50.4927 17.1931C50.4927 17.1931 50.8249 17.1341 50.9706 17.382C50.9997 17.4115 51.128 15.9477 49.869 15.9477Z" fill="black"/>
</g>
<path fill-rule="evenodd" clip-rule="evenodd" d="M12 4.9469L11.7864 3.9469L11 4.55274L12 4.9469Z" fill="black"/>
<path fill-rule="evenodd" clip-rule="evenodd" d="M39.1503 7.21214C39.1503 7.21214 39.5229 6.84635 39.6929 7.35846L39.1503 7.21214ZM39.9608 7.18167C39.4314 6.87071 39.2484 6.87071 39 7.16948C39 7.16948 39.1111 7.65727 39.098 7.91945C39.098 7.91945 39.5425 8.02311 40 7.82799C40.4575 7.63288 41 7.47434 41 7.47434C41 7.47434 40.4901 7.49264 39.9608 7.18167Z" fill="black"/>
<path fill-rule="evenodd" clip-rule="evenodd" d="M11 3.9469L10 4.29796L10.5556 4.9469L11 3.9469Z" fill="black"/>
<path fill-rule="evenodd" clip-rule="evenodd" d="M11 4.34396L10 3.9469L10.2157 4.9469L11 4.34396Z" fill="black"/>
<path fill-rule="evenodd" clip-rule="evenodd" d="M29.5318 18.7096C29.3024 18.4159 29.3808 17.9264 29.3808 17.9264C29.7498 17.8041 29.9176 17.1861 29.61 16.8312C29.3024 16.4763 28.7655 15.6931 29.1626 15.8277C29.5597 15.9623 29.6827 16.4885 29.6827 16.4885L29.8225 16.3539C29.7387 15.8277 29.0507 15.118 28.7208 15.4423C28.3852 15.7665 28.6537 16.3784 29.1738 16.874C29.6939 17.3696 29.1067 17.3696 29.1067 17.3696C28.5306 16.9964 28.1951 16.0174 28.1951 16.0174C28.1838 15.6319 28.402 15.375 28.4914 15.1119C28.5866 14.8488 28.5753 14.035 27.7868 13.9554C26.9981 13.8759 26.657 14.3715 26.6737 14.653C26.6905 14.9344 27.1939 15.0078 27.1939 15.0078C27.1939 15.0078 27.015 15.3138 27.015 15.5279C27.015 15.7421 26.8751 15.8828 26.8751 15.8828C26.5955 15.8522 26.5507 15.5891 26.506 15.3627C26.4613 15.1363 26.2263 14.8549 26.0865 15.0813C25.9467 15.3076 26.1033 15.7482 26.3438 16.0052C26.5843 16.256 26.6962 16.5926 26.6962 16.5926C26.6962 16.5926 26.3997 16.7455 26.2767 16.8557C26.1537 16.9658 25.9076 17.3513 26.0362 17.5471C26.1648 17.7429 26.3494 17.6817 26.4165 17.5042C26.4836 17.3329 26.5172 17.1983 26.7297 17.2105C26.9422 17.2228 27.3617 17.1371 27.3617 17.1371C27.4288 17.1677 27.9266 17.8163 27.9266 17.8163C27.9266 17.8163 27.9546 17.8775 27.6972 18.0672C27.44 18.2629 27.3841 18.7769 27.3337 19.0706C27.289 19.3643 26.8583 19.3827 26.7297 19.4377C26.6011 19.4867 26.4333 19.8048 26.8415 19.866C27.2498 19.9272 27.591 19.6519 27.7309 19.401C27.8707 19.1502 28.044 18.7035 28.1951 18.5689C28.3461 18.4343 28.6592 18.4465 28.8327 18.6484C29.0116 18.8503 29.3248 19.1563 29.5094 19.4071C29.6939 19.658 29.3248 19.7314 29.3248 19.7314C29.4647 20.0251 29.5374 19.9639 29.7778 19.866C30.0183 19.762 29.9456 19.7743 29.9903 19.4316C30.0575 19.0951 29.7611 19.0033 29.5318 18.7096Z" fill="black"/>
<path fill-rule="evenodd" clip-rule="evenodd" d="M36.8433 8.96939C36.5838 8.8909 36.2595 9.03361 36.1815 9.1549C36.1038 9.2762 36 9.77566 36 9.77566C36.2204 9.81133 36.2204 9.9469 36.2204 9.9469C37.1286 9.69717 37.1028 9.05501 36.8433 8.96939Z" fill="black"/>
<path fill-rule="evenodd" clip-rule="evenodd" d="M22.5195 21.4441C22.0161 21.5481 21.6921 21.8083 21.6921 21.8083C21.6921 21.8083 21.5026 21.4152 21.1487 21.71C20.7948 22.0048 21.1836 22.4383 21.1836 22.4383C20.9593 24.2823 22.2853 25.4211 22.2853 25.4211C22.2853 25.4211 22.1856 25.8835 22.4597 25.9413C22.7339 25.9991 22.8086 25.5887 22.8086 25.5887C22.9432 24.3979 24 20.947 24 20.947C24 20.947 23.023 21.3343 22.5195 21.4441Z" fill="black"/>
<path fill-rule="evenodd" clip-rule="evenodd" d="M23.8652 8.56715V8.67565V8.9469H24.4065V8.4261L24.1572 8.58885C24.1572 8.58885 23.4395 7.71543 24.2666 7.83478C24.2666 7.83478 24.3883 7.40079 24.5464 7.16209C24.7106 7.40621 24.8262 7.83478 24.8262 7.83478C25.6533 7.71543 24.9357 8.58885 24.9357 8.58885L24.6863 8.4261V8.9469H25.9757L25.9818 8.67023H25.4587V7.66119H26V7.56354L25.6047 7.34654L25.4526 6.55449H25.3127H25.1729L25.0695 6.46227C24.8383 6.26697 24.3883 5.96317 24.1693 5.9469H24.1024C23.8774 5.9469 23.5125 6.02285 23.2692 6.21272C23.0989 6.34292 23.0138 6.50567 23.0016 6.71724C22.9651 7.34111 23.5672 8.20911 23.7983 8.48578L23.8652 8.56715Z" fill="black"/>
<path fill-rule="evenodd" clip-rule="evenodd" d="M38.1019 7.46894C37.5186 7.66392 37 7.94696 37 7.94696C37.4861 7.76456 38.0209 7.84633 38.5556 7.68279C39.0902 7.51926 38.9931 6.9469 38.9931 6.9469C38.9282 7.13559 38.6852 7.27396 38.1019 7.46894Z" fill="black"/>
<path fill-rule="evenodd" clip-rule="evenodd" d="M26.5402 7.66351V8.67073H26.0182L26.0243 8.9469H27.311V8.42704L27.0623 8.5895C27.0623 8.5895 26.346 7.71766 27.1714 7.83679C27.1714 7.83679 27.2928 7.40358 27.4506 7.16531C27.6145 7.40899 27.7299 7.83679 27.7299 7.83679C28.5553 7.71766 27.8391 8.5895 27.8391 8.5895L27.5902 8.42704V8.9469H28.1304V8.67614V8.56784L28.2033 8.4812C28.4339 8.19961 29.0349 7.3386 28.9984 6.71585C28.9863 6.51008 28.9013 6.34221 28.7314 6.21224C28.4886 6.02271 28.1244 5.9469 27.8998 5.9469H27.833C27.6145 5.96314 27.1654 6.26639 26.9347 6.46134L26.8315 6.5534H26.6859H26.5463L26.3946 7.34401L26 7.56062V7.65809H26.5402V7.66351Z" fill="black"/>
<path fill-rule="evenodd" clip-rule="evenodd" d="M24.9333 1.33563L25 1.21253C25 1.21253 24.4833 0.769352 24 1.02787V1.36025L24.2167 1.44643C24.2333 1.45874 24.4 1.22484 24.9333 1.33563Z" fill="black"/>
</svg>
